<?xml version="1.0" encoding="UTF-8" standalone="no"?>
<svg
   xml:space="preserve"
   viewBox="0 0 250 250"
   version="1.1"
   id="svg1"
   sodipodi:docname="logo_github.svg"
   width="250"
   height="250"
   inkscape:version="1.3 (0e150ed6c4, 2023-07-21)"
   xmlns:inkscape="http://www.inkscape.org/namespaces/inkscape"
   xmlns:sodipodi="http://sodipodi.sourceforge.net/DTD/sodipodi-0.dtd"
   xmlns="http://www.w3.org/2000/svg"
   xmlns:svg="http://www.w3.org/2000/svg"><defs
   id="defs1" /><sodipodi:namedview
   id="namedview1"
   pagecolor="#505050"
   bordercolor="#eeeeee"
   borderopacity="1"
   inkscape:showpageshadow="0"
   inkscape:pageopacity="0"
   inkscape:pagecheckerboard="0"
   inkscape:deskcolor="#505050"
   showgrid="false"
   inkscape:zoom="2.0122549"
   inkscape:cx="66.840438"
   inkscape:cy="122.99635"
   inkscape:window-width="1920"
   inkscape:window-height="1017"
   inkscape:window-x="-8"
   inkscape:window-y="-8"
   inkscape:window-maximized="1"
   inkscape:current-layer="svg1" />&#10;  &#10;<rect
   style="fill:#ffffff"
   id="rect4"
   width="250"
   height="250"
   x="0"
   y="0"
   ry="57.278233"
   rx="57.278233" /><path
   d="m 125,50 c 41.4225,0 75,34.42556 75,76.89875 0,33.96806 -21.465,62.78353 -51.2475,72.96119 -3.8025,0.75751 -5.1525,-1.64253 -5.1525,-3.69006 0,-2.53504 0.09,-10.81517 0.09,-21.10534 0,-7.17012 -2.4,-11.8502 -5.0925,-14.23523 16.7025,-1.90504 34.2525,-8.40764 34.2525,-37.94312 0,-8.40014 -2.91,-15.25525 -7.725,-20.64034 0.78,-1.94253 3.3525,-9.76516 -0.735,-20.35533 0,0 -6.285,-2.06253 -20.6025,7.88263 C 137.795,88.07062 131.375,87.21561 125,87.18561 c -6.375,0 -12.7875,0.88501 -18.7725,2.58754 C 91.895,79.82799 85.595,81.89052 85.595,81.89052 c -4.0725,10.59017 -1.5,18.4128 -0.7275,20.35533 -4.7925,5.38509 -7.725,12.2402 -7.725,20.64034 0,29.46048 17.5125,36.06059 34.17,38.00312 -2.145,1.92003 -4.0875,5.31008 -4.7625,10.28266 -4.275,1.96504 -15.135,5.36259 -21.825,-6.3901 0,0 -3.9675,-7.38762 -11.4975,-7.92763 0,0 -7.3125,-0.0975 -0.51,4.67258 0,0 4.9125,2.36254 8.325,11.25018 0,0 4.4025,13.72522 25.2675,9.07515 0.0375,6.4276 0.105,12.4877 0.105,14.31773 0,2.03253 -1.38,4.41007 -5.1225,3.69756 C 71.4875,189.70478 50,160.87431 50,126.89875 50,84.42556 83.585,50 125,50"
   id="github-[#142]"
   style="fill:#000000;fill-rule:evenodd;stroke:none;stroke-width:7.50006" /></svg>
