<?xml version="1.0" encoding="UTF-8" standalone="no"?>
<svg
   xml:space="preserve"
   viewBox="0 0 250 250"
   version="1.1"
   id="svg1"
   sodipodi:docname="logo_spotify.svg"
   width="250"
   height="250"
   inkscape:version="1.3 (0e150ed6c4, 2023-07-21)"
   xmlns:inkscape="http://www.inkscape.org/namespaces/inkscape"
   xmlns:sodipodi="http://sodipodi.sourceforge.net/DTD/sodipodi-0.dtd"
   xmlns="http://www.w3.org/2000/svg"
   xmlns:svg="http://www.w3.org/2000/svg"><defs
   id="defs1" /><sodipodi:namedview
   id="namedview1"
   pagecolor="#505050"
   bordercolor="#eeeeee"
   borderopacity="1"
   inkscape:showpageshadow="0"
   inkscape:pageopacity="0"
   inkscape:pagecheckerboard="0"
   inkscape:deskcolor="#505050"
   showgrid="false"
   inkscape:zoom="2.0122549"
   inkscape:cx="66.840438"
   inkscape:cy="122.99635"
   inkscape:window-width="1920"
   inkscape:window-height="1017"
   inkscape:window-x="-8"
   inkscape:window-y="-8"
   inkscape:window-maximized="1"
   inkscape:current-layer="svg1" />&#10;  &#10;<rect
   style="fill:#ffffff"
   id="rect4"
   width="250"
   height="250"
   x="0"
   y="0"
   ry="57.278233"
   rx="57.278233" /><path
   d="m 169.3625,116.4875 c -24.1725,-14.355 -64.05,-15.675 -87.135,-8.67 -3.705,1.1175 -7.62,-0.9675 -8.745,-4.68 -1.125,-3.705 0.9675,-7.62 4.6725,-8.745 26.4975,-8.0475 70.5375,-6.495 98.37,10.0275 3.33,1.98 4.425,6.285 2.445,9.615 -1.965,3.33 -6.285,4.4325 -9.6075,2.4525 z M 168.575,137.75 c -1.695,2.7525 -5.295,3.615 -8.0475,1.9275 -20.1525,-12.39 -50.8875,-15.975 -74.73,-8.7375 -3.0975,0.93 -6.36,-0.81 -7.2975,-3.9 -0.93,-3.09 0.81,-6.3525 3.9,-7.29 27.2325,-8.265 61.095,-4.26 84.2475,9.9675 2.7525,1.6875 3.615,5.2875 1.9275,8.0325 z m -9.18,20.4225 c -1.35,2.205 -4.2225,2.9025 -6.4275,1.5525 -17.61,-10.7625 -39.78,-13.1925 -65.8875,-7.23 -2.5125,0.5775 -5.025,-0.9975 -5.595,-3.5175 -0.5775,-2.5125 0.99,-5.0175 3.5175,-5.595 28.5675,-6.5325 53.07,-3.72 72.84,8.3625 2.205,1.35 2.9025,4.2225 1.5525,6.4275 z M 125,50 c -41.4225,0 -75,33.5775 -75,75 0,41.4225 33.5775,75 75,75 41.4225,0 75,-33.5775 75,-75 0,-41.415 -33.5775,-74.9925 -75,-74.9925 z"
   id="spotify-[#162]"
   style="fill:#000000;fill-rule:evenodd;stroke:none;stroke-width:7.5" /></svg>
