<?xml version="1.0" encoding="UTF-8" standalone="no"?>
<svg
   xml:space="preserve"
   viewBox="0 0 250 250"
   version="1.1"
   id="svg1"
   sodipodi:docname="logo_twitter.svg"
   width="250"
   height="250"
   inkscape:version="1.3 (0e150ed6c4, 2023-07-21)"
   xmlns:inkscape="http://www.inkscape.org/namespaces/inkscape"
   xmlns:sodipodi="http://sodipodi.sourceforge.net/DTD/sodipodi-0.dtd"
   xmlns="http://www.w3.org/2000/svg"
   xmlns:svg="http://www.w3.org/2000/svg"><defs
   id="defs1" /><sodipodi:namedview
   id="namedview1"
   pagecolor="#505050"
   bordercolor="#eeeeee"
   borderopacity="1"
   inkscape:showpageshadow="0"
   inkscape:pageopacity="0"
   inkscape:pagecheckerboard="0"
   inkscape:deskcolor="#505050"
   showgrid="false"
   inkscape:zoom="2.8457582"
   inkscape:cx="100.67616"
   inkscape:cy="120.00317"
   inkscape:window-width="1920"
   inkscape:window-height="1017"
   inkscape:window-x="-8"
   inkscape:window-y="-8"
   inkscape:window-maximized="1"
   inkscape:current-layer="svg1" />&#10;  &#10;<rect
   style="fill:#ffffff"
   id="rect4"
   width="250"
   height="250"
   x="0"
   y="0"
   ry="57.278233"
   rx="57.278233" /><path
   fill="#1d9bf0"
   d="m 204.52468,87.342131 c 0.12188,1.627403 0.12188,3.254796 0.12188,4.897199 C 204.64656,142.28365 163.37091,200 87.896608,200 v -0.03 C 65.601259,200 43.769042,194.10537 25,182.99107 c 3.241926,0.36 6.500101,0.54 9.766402,0.5475 18.47654,0.015 36.424944,-5.70713 50.960797,-16.24397 -17.5584,-0.3075 -32.955515,-10.87431 -38.33435,-26.30083 6.150722,1.09493 12.488321,0.86989 18.52529,-0.6525 C 46.775339,136.7715 33.00325,121.24749 33.00325,103.21863 v -0.48 c 5.703838,2.93231 12.090188,4.55971 18.622791,4.7397 C 33.596383,96.356529 28.038797,74.217938 38.926466,56.909035 59.759293,80.57004 90.496648,94.954126 123.49279,96.476529 120.18586,83.322357 124.70343,69.538228 135.3636,60.29132 c 16.5265,-14.339097 42.51879,-13.60414 58.05403,1.642392 9.18952,-1.672392 17.99715,-4.784688 26.05728,-9.194419 -3.06317,8.766952 -9.47389,16.213978 -18.03778,20.946177 8.13325,-0.884892 16.07963,-2.894806 23.56287,-5.962123 -5.50884,7.619526 -12.4477,14.256596 -20.47532,19.618763 z"
   id="path1"
   style="stroke-width:0.780609;fill:#000000" /></svg>
