<?xml version="1.0" encoding="UTF-8" standalone="no"?>
<svg
   xml:space="preserve"
   viewBox="0 0 250 250"
   version="1.1"
   id="svg1"
   sodipodi:docname="logo_discord.svg"
   width="250"
   height="250"
   inkscape:version="1.3 (0e150ed6c4, 2023-07-21)"
   xmlns:inkscape="http://www.inkscape.org/namespaces/inkscape"
   xmlns:sodipodi="http://sodipodi.sourceforge.net/DTD/sodipodi-0.dtd"
   xmlns="http://www.w3.org/2000/svg"
   xmlns:svg="http://www.w3.org/2000/svg"><defs
   id="defs1" /><sodipodi:namedview
   id="namedview1"
   pagecolor="#505050"
   bordercolor="#eeeeee"
   borderopacity="1"
   inkscape:showpageshadow="0"
   inkscape:pageopacity="0"
   inkscape:pagecheckerboard="0"
   inkscape:deskcolor="#505050"
   showgrid="false"
   inkscape:zoom="2.0122549"
   inkscape:cx="42.489647"
   inkscape:cy="118.0268"
   inkscape:window-width="1920"
   inkscape:window-height="1017"
   inkscape:window-x="-8"
   inkscape:window-y="-8"
   inkscape:window-maximized="1"
   inkscape:current-layer="svg1" />&#10;  &#10;<rect
   style="fill:#ffffff"
   id="rect4"
   width="250"
   height="250"
   x="0"
   y="0"
   ry="57.278233"
   rx="57.278233" /><path
   d="M 177.06426,74.212474 C 167.35449,69.908749 156.97235,66.780981 146.1181,65 c -1.33303,2.283153 -2.89039,5.354042 -3.96413,7.796925 -11.53835,-1.643848 -22.97059,-1.643848 -34.29673,0 C 106.7837,70.354042 105.19097,67.283153 103.84601,65 92.98004,66.780981 82.58597,69.920241 72.876206,74.235265 53.291518,102.27181 47.982431,129.61198 50.636979,156.56394 c 12.989595,9.18951 25.578081,14.77183 37.954111,18.42477 3.05572,-3.98408 5.781,-8.21924 8.12876,-12.6827 -4.4714,-1.60957 -8.75405,-3.59586 -12.80064,-5.90179 1.07354,-0.75346 2.12364,-1.5412 3.13817,-2.35172 24.68134,10.93618 51.49825,10.93618 75.88472,0 1.02646,0.81052 2.07635,1.59826 3.13817,2.35172 -4.05852,2.31723 -8.35288,4.30353 -12.82429,5.91328 2.34777,4.45197 5.06133,8.69863 8.12876,12.6825 12.38797,-3.65293 24.98813,-9.23507 37.97773,-18.43606 3.11472,-31.24417 -5.32081,-58.33327 -22.29821,-82.351466 z m -76.98191,65.776266 c -7.40909,0 -13.48515,-6.55259 -13.48515,-14.53203 0,-7.97945 5.94631,-14.54335 13.48515,-14.54335 7.53904,0 13.6149,6.55241 13.48515,14.54335 0.0117,7.97944 -5.94611,14.53203 -13.48515,14.53203 z m 49.83479,0 c -7.4091,0 -13.48516,-6.55259 -13.48516,-14.53203 0,-7.97945 5.94611,-14.54335 13.48516,-14.54335 7.53883,0 13.61489,6.55241 13.48514,14.54335 0,7.97944 -5.94631,14.53203 -13.48514,14.53203 z"
   fill="#5865f2"
   fill-rule="nonzero"
   id="path1"
   style="stroke-width:0.570306;fill:#000000" /></svg>
