<?xml version="1.0" encoding="UTF-8" standalone="no"?>
<svg
   xml:space="preserve"
   viewBox="0 0 250 250"
   version="1.1"
   id="svg1"
   sodipodi:docname="logo_youtube.svg"
   width="250"
   height="250"
   inkscape:version="1.3 (0e150ed6c4, 2023-07-21)"
   xmlns:inkscape="http://www.inkscape.org/namespaces/inkscape"
   xmlns:sodipodi="http://sodipodi.sourceforge.net/DTD/sodipodi-0.dtd"
   xmlns="http://www.w3.org/2000/svg"
   xmlns:svg="http://www.w3.org/2000/svg"><defs
   id="defs1" /><sodipodi:namedview
   id="namedview1"
   pagecolor="#505050"
   bordercolor="#eeeeee"
   borderopacity="1"
   inkscape:showpageshadow="0"
   inkscape:pageopacity="0"
   inkscape:pagecheckerboard="0"
   inkscape:deskcolor="#505050"
   showgrid="false"
   inkscape:zoom="2.0122549"
   inkscape:cx="77.773447"
   inkscape:cy="99.639464"
   inkscape:window-width="1920"
   inkscape:window-height="1017"
   inkscape:window-x="-8"
   inkscape:window-y="-8"
   inkscape:window-maximized="1"
   inkscape:current-layer="svg1" />&#10;  &#10;<rect
   style="fill:#ffffff"
   id="rect4"
   width="250"
   height="250"
   x="0"
   y="0"
   ry="57.278233"
   rx="57.278233" /><path
   d="M 109.91324,141.00174 V 96.5093 c 14.94157,7.43298 26.51377,14.61225 40.20022,22.35286 -11.28832,6.61793 -25.25865,14.04298 -40.20022,22.13958 m 83.26927,-66.623299 c -2.57745,-3.590031 -6.97028,-6.380867 -11.64698,-7.306125 -13.74622,-2.759122 -99.503236,-2.767051 -113.24196,0 -3.750299,0.74528 -7.08975,2.537917 -9.958574,5.329547 -12.087674,11.860262 -8.300024,75.462797 -5.386425,85.765897 1.2252,4.459 2.80905,7.67718 4.80375,9.78854 2.569949,2.79084 6.08865,4.71192 10.130324,5.57375 11.318249,2.47528 69.627665,3.85881 113.413865,0.37264 4.03417,-0.74528 7.60522,-2.72741 10.4217,-5.63717 11.17627,-11.81349 10.41427,-78.990195 1.4643,-93.886286"
   id="youtube-[#168]"
   style="fill:#000000;fill-rule:evenodd;stroke:none;stroke-width:7.71128" /></svg>
