<?xml version="1.0" encoding="UTF-8" standalone="no"?>
<!DOCTYPE svg PUBLIC "-//W3C//DTD SVG 1.1//EN" "http://www.w3.org/Graphics/SVG/1.1/DTD/svg11.dtd">
<svg width="100%" height="100%" viewBox="0 0 250 250" version="1.1" xmlns="http://www.w3.org/2000/svg" xmlns:xlink="http://www.w3.org/1999/xlink" xml:space="preserve" xmlns:serif="http://www.serif.com/" style="fill-rule:evenodd;clip-rule:evenodd;stroke-linejoin:round;stroke-miterlimit:2;">
    <path id="rect4" d="M250,57.278L250,192.722C250,224.334 224.334,250 192.722,250L57.278,250C25.666,250 0,224.334 0,192.722L0,57.278C0,25.666 25.666,0 57.278,0L192.722,0C224.334,0 250,25.666 250,57.278Z" style="fill:white;"/>
    <g id="path1" transform="matrix(0.775,0,0,0.775,28.125,28.125)">
        <path d="M204.525,87.342C204.647,88.97 204.647,90.597 204.647,92.239C204.647,142.284 163.371,200 87.897,200L87.897,199.97C65.601,200 43.769,194.105 25,182.991C28.242,183.351 31.5,183.531 34.766,183.539C53.243,183.554 71.191,177.831 85.727,167.295C68.169,166.987 52.772,156.42 47.393,140.994C53.544,142.089 59.881,141.864 65.918,140.341C46.775,136.772 33.003,121.247 33.003,103.219L33.003,102.739C38.707,105.671 45.093,107.298 51.626,107.478C33.596,96.357 28.039,74.218 38.926,56.909C59.759,80.57 90.497,94.954 123.493,96.477C120.186,83.322 124.703,69.538 135.364,60.291C151.89,45.952 177.882,46.687 193.418,61.934C202.607,60.261 211.415,57.149 219.475,52.739C216.412,61.506 210.001,68.953 201.437,73.685C209.57,72.801 217.517,70.791 225,67.723C219.491,75.343 212.552,81.98 204.525,87.342L204.525,87.342Z" style="fill-rule:nonzero;stroke:black;stroke-width:1.29px;"/>
    </g>
</svg>
